<svg width="21" height="20" viewBox="0 0 21 20" fill="none" xmlns="http://www.w3.org/2000/svg">
<path fill-rule="evenodd" clip-rule="evenodd" d="M17.2379 18.7034C17.4857 18.4556 17.625 18.1194 17.625 17.7689V7.74317C17.625 7.39266 17.4857 7.05649 17.2379 6.80864L12.7255 2.29628C12.4776 2.04842 12.1415 1.90918 11.791 1.90918H4.40855C4.05803 1.90918 3.72187 2.04842 3.47401 2.29628C3.22616 2.54413 3.08691 2.88029 3.08691 3.23082V17.7689C3.08691 18.1194 3.22616 18.4556 3.47401 18.7034C3.72187 18.9512 4.05803 19.0905 4.40855 19.0905H16.3034C16.6539 19.0905 16.99 18.9512 17.2379 18.7034ZM10.5624 8.18029C10.7994 7.84061 10.7162 7.37308 10.3766 7.13603C10.0369 6.89899 9.56936 6.98219 9.33232 7.32187L8.11367 9.06814L7.7045 8.64934C7.41503 8.35306 6.94019 8.34753 6.64391 8.637C6.34763 8.92646 6.34211 9.40131 6.63157 9.69759L7.67382 10.7644C7.82996 10.9242 8.04922 11.0061 8.27189 10.9877C8.49457 10.9694 8.69746 10.8527 8.82533 10.6695L10.5624 8.18029ZM11.9786 8.57508C11.5644 8.57508 11.2286 8.91087 11.2286 9.32508C11.2286 9.7393 11.5644 10.0751 11.9786 10.0751H15.0883C15.5025 10.0751 15.8383 9.7393 15.8383 9.32508C15.8383 8.91087 15.5025 8.57508 15.0883 8.57508H11.9786ZM10.5624 12.6762C10.7994 12.3365 10.7162 11.869 10.3766 11.6319C10.0369 11.3949 9.56936 11.4781 9.33232 11.8177L8.11367 13.564L7.7045 13.1452C7.41503 12.8489 6.94019 12.8434 6.64391 13.1329C6.34763 13.4223 6.34211 13.8972 6.63157 14.1935L7.67382 15.2602C7.82996 15.4201 8.04922 15.5019 8.27189 15.4836C8.49457 15.4652 8.69746 15.3486 8.82533 15.1653L10.5624 12.6762ZM11.9786 12.9915C11.5644 12.9915 11.2286 13.3273 11.2286 13.7415C11.2286 14.1557 11.5644 14.4915 11.9786 14.4915H15.0883C15.5025 14.4915 15.8383 14.1557 15.8383 13.7415C15.8383 13.3273 15.5025 12.9915 15.0883 12.9915H11.9786Z" fill="white"/>
</svg>
