<svg width="21" height="20" viewBox="0 0 21 20" fill="none" xmlns="http://www.w3.org/2000/svg">
<path fill-rule="evenodd" clip-rule="evenodd" d="M8.7575 4.39434C8.75777 4.20566 8.62245 4.04778 8.44155 4.00908L18.1592 4.02236C19.1613 4.02373 19.9725 4.82016 19.9711 5.80123L19.9591 14.2261C19.9577 15.2072 19.1442 16.0014 18.1421 16L3.18689 15.9796C2.18481 15.9782 1.3736 15.1818 1.375 14.2007L1.38702 5.77583C1.38842 4.79476 2.20189 4.00055 3.20397 4.00192L8.27012 4.00884C8.08911 4.04705 7.95334 4.20456 7.95307 4.39324L7.94925 7.06869C7.75819 6.06198 7.3663 4.95215 6.56433 4.68031C6.05034 4.50668 5.49014 4.69625 4.89825 5.24471C4.24916 5.84616 4.00888 6.41358 4.18315 6.93188C4.40518 7.59119 5.26681 8.03896 6.74615 8.26463L1.84155 8.25793C1.61942 8.25762 1.43908 8.43368 1.43877 8.65117C1.43846 8.86865 1.61829 9.0452 1.84043 9.0455L6.98269 9.05253C5.35303 9.33179 4.42351 9.83097 4.2192 10.5376C4.06737 11.0624 4.33229 11.6199 5.00647 12.1937C5.45489 12.5759 5.87868 12.7676 6.27165 12.7676H6.27209C6.41731 12.7676 6.55857 12.7413 6.69543 12.6888C7.4331 12.4042 7.78145 11.4029 7.94444 10.4457L7.9372 15.5163C7.93689 15.7337 8.11672 15.9103 8.33886 15.9106C8.561 15.9109 8.74133 15.7348 8.74164 15.5174L8.75086 9.05495L9.37344 9.0558C9.22878 9.08942 9.09551 9.16283 8.98776 9.27097C8.81261 9.44675 8.7334 9.68673 8.76993 9.92973C8.93319 11.0146 9.31692 12.3713 10.2155 12.6759C10.3388 12.7177 10.4642 12.7384 10.5927 12.7384V12.7388C10.9997 12.7388 11.4319 12.529 11.8816 12.1119C12.5307 11.5105 12.771 10.9431 12.5967 10.4248C12.3623 9.72829 11.415 9.26842 9.78066 9.05636L19.516 9.06967C19.7382 9.06997 19.9185 8.89391 19.9188 8.67643C19.9191 8.45894 19.7393 8.28239 19.5171 8.28209L10.192 8.26934C11.5802 8.06262 12.3973 7.63909 12.6239 7.00761C12.8083 6.49275 12.579 5.92059 11.9422 5.30708C11.3614 4.74741 10.8047 4.54707 10.2876 4.71122C9.38328 4.99859 8.9727 6.34799 8.78787 7.4294C8.7465 7.67153 8.82131 7.9128 8.99294 8.09203C9.06522 8.16728 9.14967 8.22649 9.24182 8.26804L8.75198 8.26737L8.7575 4.39434ZM7.94754 8.26627L8.75198 8.26737L8.75086 9.05495L7.94642 9.05385L7.94754 8.26627ZM7.51755 8.26569L7.94754 8.26627L7.94812 7.86259C8.0105 7.72827 8.03271 7.57797 8.00994 7.42649C7.99238 7.30982 7.97228 7.19 7.94925 7.06869L7.94812 7.86259C7.91043 7.94373 7.85807 8.01904 7.79211 8.08524C7.71261 8.16488 7.61919 8.22572 7.51755 8.26569ZM7.51755 8.26569L6.74615 8.26463C6.86767 8.28317 6.99337 8.30021 7.12321 8.31574C7.15622 8.31962 7.18922 8.32178 7.22223 8.32178V8.32134C7.32464 8.32134 7.42453 8.30226 7.51755 8.26569ZM7.94584 9.46256L7.94642 9.05385L7.4491 9.05317C7.33669 9.02138 7.21688 9.01414 7.09677 9.03353C7.05837 9.03975 7.02035 9.04608 6.98269 9.05253L7.4491 9.05317C7.56897 9.08707 7.68044 9.14887 7.77491 9.23602C7.8467 9.30224 7.90414 9.37897 7.94584 9.46256ZM7.94584 9.46256L7.94444 10.4457C7.97688 10.2552 8.00198 10.0664 8.02135 9.8853C8.03711 9.73704 8.01023 9.59163 7.94584 9.46256ZM9.24182 8.26804C9.34491 8.31452 9.45765 8.3389 9.57382 8.3389L9.57338 8.33977C9.60111 8.33977 9.62883 8.33804 9.65699 8.33546C9.84387 8.31667 10.0222 8.29463 10.192 8.26934L9.24182 8.26804ZM9.78066 9.05636C9.73975 9.05105 9.69842 9.0459 9.65665 9.0409C9.56009 9.02925 9.46451 9.03464 9.37344 9.0558L9.78066 9.05636ZM8.27012 4.00884C8.29775 4.00301 8.32643 3.99996 8.35585 4C8.38526 4.00004 8.41394 4.00317 8.44155 4.00908L8.27012 4.00884ZM9.55368 9.81642C9.73146 10.9961 10.0844 11.8108 10.4747 11.943C10.7392 12.0327 11.0895 11.778 11.3373 11.5484C11.7324 11.1822 11.9124 10.869 11.8447 10.6669C11.7206 10.2977 10.8241 9.96118 9.56116 9.81038C9.55634 9.80966 9.55464 9.81291 9.55397 9.81421L9.55368 9.81469L9.16202 9.87329L9.55368 9.81685V9.81642ZM7.22615 9.7987H7.22747V9.79827C7.23187 9.79827 7.23363 9.80215 7.23363 9.80215V9.8043C7.10689 10.99 6.78917 11.8189 6.40499 11.9671C6.14447 12.0675 5.78318 11.8275 5.52619 11.6087C5.11561 11.2593 4.92198 10.9538 4.98139 10.7491C5.08964 10.3747 5.97065 10.0021 7.22615 9.7987ZM6.1894 5.39507C5.94472 5.39507 5.65604 5.61092 5.44305 5.80782C5.04787 6.17403 4.86788 6.48725 4.93565 6.68932C5.05975 7.05855 5.95616 7.39504 7.21915 7.54583C7.22487 7.54669 7.22663 7.54195 7.22663 7.54152L7.61828 7.48293L7.22663 7.53937C7.04884 6.35972 6.69591 5.545 6.30557 5.41274C6.26817 5.40024 6.22944 5.39421 6.1894 5.39421V5.39507ZM10.5327 5.44839C10.5675 5.43719 10.604 5.43202 10.6414 5.43202C10.8883 5.43202 11.1765 5.65563 11.3873 5.85898C11.775 6.23252 11.9493 6.54919 11.8771 6.74996C11.7455 7.11661 10.8425 7.43586 9.5769 7.56296C9.57118 7.56382 9.56986 7.55908 9.56986 7.55908V7.55693C9.77097 6.38116 10.1397 5.57334 10.5327 5.44839Z" fill="white"/>
</svg>
