<svg width="21" height="20" viewBox="0 0 21 20" fill="none" xmlns="http://www.w3.org/2000/svg">
<g clip-path="url(#clip0_551_103)">
<path d="M17.545 11.8277L18.8581 5.73396C18.9529 5.29397 18.6359 4.875 18.2081 4.875H7.29744L7.04283 3.56221C6.97939 3.23499 6.70639 3 6.38969 3H3.54167C3.17347 3 2.875 3.31479 2.875 3.70312V4.17188C2.875 4.56021 3.17347 4.875 3.54167 4.875H5.48286L7.43419 14.9366C6.96736 15.2197 6.65278 15.7506 6.65278 16.3594C6.65278 17.2655 7.34922 18 8.20833 18C9.06744 18 9.76389 17.2655 9.76389 16.3594C9.76389 15.9002 9.58481 15.4853 9.29656 15.1875H15.1201C14.8319 15.4853 14.6528 15.9002 14.6528 16.3594C14.6528 17.2655 15.3492 18 16.2083 18C17.0674 18 17.7639 17.2655 17.7639 16.3594C17.7639 15.7098 17.4059 15.1485 16.8867 14.8827L17.0399 14.1715C17.1347 13.7315 16.8177 13.3125 16.3899 13.3125H8.93381L8.752 12.375H16.8949C17.2062 12.375 17.476 12.1478 17.545 11.8277Z" fill="white"/>
</g>
<defs>
<clipPath id="clip0_551_103">
<rect width="16" height="15" fill="white" transform="translate(2.875 3)"/>
</clipPath>
</defs>
</svg>
